<?xml version="1.0" encoding="iso-8859-1"?>
<!-- Generator: Adobe Illustrator 19.0.0, SVG Export Plug-In . SVG Version: 6.00 Build 0)  -->
<svg version="1.1" id="Capa_1" xmlns="http://www.w3.org/2000/svg" xmlns:xlink="http://www.w3.org/1999/xlink" x="0px" y="0px"
	 viewBox="0 0 360 360" style="enable-background:new 0 0 360 360;" xml:space="preserve">
<g id="XMLID_970_">
	<path id="XMLID_971_" d="M345.715,124.238h-51.429V77.834L211.262,0H14.285v360h280v-53.034h51.429V124.238z M315.715,276.966h-210
		V154.238h210V276.966z"/>
	<path id="XMLID_974_" d="M134.586,234.324c2.79,3.16,6.118,5.72,9.982,7.682c3.864,1.964,8.126,2.944,12.788,2.944
		c2.636,0,5.336-0.337,8.096-1.012c2.76-0.674,5.35-1.656,7.774-2.944c2.422-1.288,4.6-2.867,6.532-4.738
		c1.932-1.87,3.419-4.032,4.462-6.486l-10.396-5.98c-0.736,1.779-1.718,3.297-2.944,4.554c-1.228,1.258-2.561,2.286-4.002,3.082
		c-1.442,0.798-2.96,1.38-4.554,1.748c-1.595,0.368-3.128,0.552-4.6,0.552c-2.822,0-5.414-0.612-7.774-1.84
		c-2.362-1.226-4.386-2.852-6.072-4.876c-1.688-2.024-2.99-4.37-3.91-7.038c-0.92-2.669-1.38-5.442-1.38-8.326
		c0-2.576,0.398-5.166,1.196-7.774c0.796-2.607,1.977-4.937,3.542-6.992c1.564-2.054,3.526-3.726,5.888-5.014
		c2.36-1.288,5.136-1.932,8.326-1.932c1.472,0,2.974,0.169,4.508,0.506c1.533,0.338,3.004,0.874,4.416,1.61
		c1.41,0.736,2.729,1.734,3.956,2.99c1.226,1.258,2.269,2.806,3.128,4.646l9.752-6.716c-2.148-4.232-5.414-7.666-9.798-10.304
		c-4.386-2.636-9.584-3.956-15.594-3.956c-5.091,0-9.629,0.952-13.616,2.852c-3.988,1.902-7.36,4.386-10.12,7.452
		c-2.76,3.067-4.861,6.547-6.302,10.442c-1.442,3.895-2.162,7.836-2.162,11.822c0,4.172,0.782,8.266,2.346,12.282
		C129.618,227.578,131.795,231.165,134.586,234.324z"/>
	<path id="XMLID_975_" d="M205.471,222.502h15.456c3.004,0,5.765-0.612,8.28-1.84c2.514-1.227,4.66-2.852,6.44-4.876
		c1.778-2.024,3.158-4.338,4.14-6.946c0.98-2.606,1.472-5.29,1.472-8.05c0-2.636-0.522-5.258-1.564-7.866
		c-1.043-2.606-2.484-4.936-4.324-6.992c-1.84-2.054-4.033-3.71-6.578-4.968c-2.546-1.256-5.322-1.886-8.326-1.886h-27.692v65.32
		h12.696V222.502z M205.471,190.21h14.168c1.104,0,2.192,0.23,3.266,0.69c1.072,0.46,2.008,1.15,2.806,2.07
		c0.796,0.92,1.44,2.04,1.932,3.358c0.49,1.319,0.736,2.806,0.736,4.462c0,3.252-0.782,5.828-2.346,7.728
		c-1.564,1.902-3.512,2.852-5.842,2.852h-14.72V190.21z"/>
	<path id="XMLID_978_" d="M262.786,222.502h15.456c3.004,0,5.765-0.612,8.28-1.84c2.514-1.227,4.66-2.852,6.44-4.876
		c1.778-2.024,3.158-4.338,4.14-6.946c0.98-2.606,1.472-5.29,1.472-8.05c0-2.636-0.522-5.258-1.564-7.866
		c-1.043-2.606-2.484-4.936-4.324-6.992c-1.84-2.054-4.033-3.71-6.578-4.968c-2.546-1.256-5.322-1.886-8.326-1.886H250.09v65.32
		h12.696V222.502z M262.786,190.21h14.168c1.104,0,2.192,0.23,3.266,0.69c1.072,0.46,2.008,1.15,2.806,2.07
		c0.796,0.92,1.44,2.04,1.932,3.358c0.49,1.319,0.736,2.806,0.736,4.462c0,3.252-0.782,5.828-2.346,7.728
		c-1.564,1.902-3.512,2.852-5.842,2.852h-14.72V190.21z"/>
</g>
<g>
</g>
<g>
</g>
<g>
</g>
<g>
</g>
<g>
</g>
<g>
</g>
<g>
</g>
<g>
</g>
<g>
</g>
<g>
</g>
<g>
</g>
<g>
</g>
<g>
</g>
<g>
</g>
<g>
</g>
</svg>
